<svg id="Layer_1" data-name="Layer 1" xmlns="http://www.w3.org/2000/svg" viewBox="0 0 1467.14 1316.13">
  <defs>
    <style>
      .cls-1 {
        fill: #0019ff;
      }
    </style>
  </defs>
  <title>logo abraço solidário</title>
  <g>
    <path class="cls-1" d="M953.05,1042.25c-1.65,0-3.41,0-5.25,0-38,0-115-5.77-166.74-9.64-18.81-1.41-33.66-2.52-42.35-3-35.07-2.09-171.52-33.45-182.74-37.16-11.86-3.92-40.14-7.09-59.32-6.63-13.77.32-61.7,20.33-102,38.94-1.65.77-4.06,2.14-6.85,3.74-13.17,7.53-35.22,20.13-47.83,9.91-4.25-3.45-6.27-7.34-6-11.58.49-8.19,9.66-14.4,10.77-15.12,4-3,12.06-5.52,23.16-8.93,10.62-3.26,23.84-7.32,37.2-13.15,11.65-5.08,13.24-7.87,13.45-8.41-1-1-6.49-1.92-13.38-.62-2.44.46-6.55,1.27-11.7,2.29-23,4.55-65.91,13-75.58,12.84-14.32-.28-20-7.66-20.43-13.9-.57-7.6,9.37-16.61,19.72-17.83,9.68-1.15,44.1-5.69,71.86-10.12,10.39-1.66,13.54-3.47,14.42-4.18-1.34-1-6.07-2.48-12.51-2.16-12.32.61-78.91,2.29-86.29,1.33-11-1.42-16.84-7.62-15.75-16.58,1.45-11.87,21-12.67,29.32-12.44,1.24,0,2.9.1,4.93.18,12.42.51,38.24,1.56,66.7-1.52,11.84-1.28,15.39-2.93,16.39-3.6-1.43-1.26-6.52-3.07-10.54-3.4s-17.16-1.68-31.16-3.11c-14.76-1.51-30-3.07-34.32-3.42-6.83-.56-18.09-5.77-23.35-12.36-2.47-3.11-3.45-6.24-2.91-9.31a10.75,10.75,0,0,1,4.95-7.2c6.75-4.4,18.59-3.9,26.67-2.14,10.69,2.33,46.35,8.48,88.33,12.56,19.91,1.94,25.1-1,26.43-3,1.67-2.45-.69-6.72-2.43-9.83-.47-.86-.9-1.64-1.22-2.31-1.93-4-11.42-19.4-18.36-30.62-3.68-6-6.59-10.67-7.48-12.24-2.08-3.67-6.06-16.85-3.16-26.2a12.91,12.91,0,0,1,6.48-8.11c12.59-6.4,23.45,6.38,28.68,12.52,5.75,6.77,23.14,34.33,30.58,47.9l.49.91c7.45,13.66,22.95,42.1,106.67,45.11,229.81,8.08,413-19.41,491.25-31.15,13.11-2,23.46-3.52,30.61-4.39,50.66-6.19,92.16,9.27,126.07,25.21,33.21,15.61,50.09,10.12,53.06,5a5.77,5.77,0,0,0-.07-5.57c-1.67-3.59-6-7.11-9.64-7.84-5.22-1.05-24.92-5.57-59.69-19.72-14.18-5.78-16.52-8.76-15.69-11.69,1.54-5.48,18.85-3.75,26.22-2.74,9.28,1.26,76,7.42,84.46,7a9,9,0,0,0,6.63-3,11.28,11.28,0,0,0,2.2-8.73c-.69-5-11.42-9.88-17.26-9.88l-2.9,0c-8.66.12-26.69.37-62.14-3.2-20.16-2-29-5.44-28.72-11.07.23-4.27,6.54-7,9.76-7,1.37,0,3.12,0,5.26-.1,5.34-.15,13.41-.38,23.74-.05,14.14.44,54.85,0,66.29-2.43,5.77-1.21,8.57-4.35,9.9-6.76a11.07,11.07,0,0,0,.84-9.2c-2-5-11.15-7-18.73-6.83-2.5.06-8.63.41-16.39.85-18.45,1-46.33,2.62-66,2.84-11.87.12-16.87-1.37-17.17-5.17-.43-5.53,12.31-9.39,15-9.76l7-.92c15.2-2,50.79-6.6,62.69-9.17,8.37-1.81,12-7,13.35-9.88,1.78-3.72,1.67-7.1.76-8.79-2.26-4.23-12.06-5.14-25.58-2.38-6.31,1.28-19.74,3.93-35.29,7-19.83,3.9-42.3,8.33-56.57,11.24-16.12,3.27-23.23-.47-26.36-4.19-2.76-3.28-3.12-7.44-2-9.87.64-1.45,1.39-2.9,2.43-4.9,1.27-2.44,3-5.79,5.46-10.92.4-.83.9-1.88,1.5-3.1,5.55-11.46,20.31-41.92,19.11-53.77-.34-3.35-1.56-5.45-3.75-6.41-4-1.76-10.5.49-13,2.24-2.92,2.06-13.83,22.07-22.6,39.86-.76,1.53-1.64,3.54-2.66,5.87-6.47,14.78-18.51,42.3-43.59,51.17-47,16.15-224.27,35.13-439.86,8.23-112.21-14-200.13-47.89-254.14-73.85-56.21-27-88.4-51.36-91.18-53.49C314.92,645.12,87.53,529,18.43,445.75,12.11,508.47,19.82,595,55.32,706.45c48.54,152.36,246.29,301.79,282.24,334.15s213,164.49,234.61,179.77,106.06,91.69,113.25,101.57,53,56.3,60.23,86.13c26.06-34,254.37-251.52,320.89-293.76,32.27-20.5,94.77-67.85,154.9-118C1071.61,1040.25,987.07,1041.68,953.05,1042.25Z" transform="translate(-16.43 -91.93)"/>
    <path class="cls-1" d="M1447.66,305.33c-19.78-36.85-83.6-143.82-202.25-185.16s-178-30.56-272.35-5.4S806.77,232.52,749.24,346.68c0,0-16.4-126.29-160.67-209.21s-304-33.71-360,0S85,221.06,30.38,386.23A277.49,277.49,0,0,0,19.17,439c65.13,83.62,304,205,306.38,206.2l.41.25c.32.25,32.5,25.22,90.64,53.16,53.64,25.78,141,59.43,252.45,73.33,214.78,26.8,391,8,437.6-8,23.07-8.16,34.58-34.45,40.76-48.58,1-2.38,1.95-4.43,2.75-6,3.11-6.31,18.9-38,24.14-41.65,2.89-2,11.4-5.55,17.84-2.72,2.65,1.16,5.94,3.89,6.59,10.26,1.33,13.15-13.31,43.35-19.56,56.25-.59,1.21-1.09,2.24-1.48,3.07-2.48,5.21-4.25,8.6-5.53,11.07-1,1.92-1.73,3.31-2.31,4.63a5.64,5.64,0,0,0,1.35,5c1.86,2.22,7.15,5.5,21.61,2.56,14.28-2.91,36.76-7.34,56.6-11.25,15.54-3.06,29-5.71,35.26-7,16.45-3.36,27.42-1.64,30.88,4.82,1.8,3.38,1.55,8.36-.66,13-3,6.3-9.11,10.85-16.7,12.49-12.11,2.62-47.85,7.27-63.11,9.25l-7,.92c-3.34.46-8.65,3-10.34,4.48,1.17.43,4.24,1.11,11.82,1,19.59-.22,47.4-1.79,65.8-2.83,8.11-.46,14-.79,16.54-.86,8.9-.25,20.3,2.19,23.38,9.83a15.53,15.53,0,0,1-1.08,13.16c-2.57,4.66-7.24,7.91-13.16,9.16-12,2.51-52.74,3-67.46,2.52-10.18-.31-18.17-.09-23.45,0-2.19.06-4,.11-5.4.11-1.72,0-4.77,1.69-4.91,2.52,0,0,1.17,3.78,24.37,6.12,35.17,3.54,53,3.29,61.57,3.17l3,0c6.92,0,20.9,5.45,22.07,14a15.71,15.71,0,0,1-3.27,12.37,13.82,13.82,0,0,1-10.11,4.72c-9,.46-75.82-5.7-85.39-7-7.72-1-16.51-1.25-20-.56,1.34,1,4.51,2.91,12,5.94,35.25,14.36,55.16,18.73,58.79,19.46,5.15,1,10.78,5.56,13.09,10.52a10.42,10.42,0,0,1-.13,9.85c-4.56,7.84-24.15,13.48-59.4-3.09-33.27-15.64-74-30.82-123.36-24.78-7.08.87-17.4,2.42-30.47,4.38-68.58,10.28-217.73,32.65-408.23,32.66q-40.78,0-83.94-1.47c-86.52-3.11-102.91-33.17-110.78-47.62l-.49-.89c-7.18-13.1-24.54-40.65-30-47.12-7.05-8.29-14.68-15.4-22.69-11.34a8.25,8.25,0,0,0-4.07,5.29c-2.3,7.4.94,19.31,2.77,22.55.84,1.5,3.87,6.4,7.39,12.08,7.37,11.94,16.56,26.8,18.6,31.07.28.6.67,1.29,1.09,2,2.19,3.93,5.49,9.88,2.19,14.7-3.53,5.16-13.36,6.77-31,5.06-42.21-4.11-78.13-10.3-88.91-12.66-7.71-1.68-17.78-1.88-22.91,1.46a6,6,0,0,0-2.86,4.07c-.3,1.71.36,3.6,2,5.61,4.29,5.38,14.22,10.08,19.91,10.54,4.34.36,19.64,1.92,34.43,3.43,14,1.43,27.18,2.78,31.06,3.11,2.49.2,15.18,2.46,15.25,8.14.06,4.26-6,6.65-21,8.27-28.83,3.11-54.91,2.06-67.44,1.54l-4.86-.18c-10.74-.28-23.56,1.73-24.36,8.28-1,8.42,6.8,10.72,11.56,11.33,6.61.87,71.28-.66,85.4-1.36,6.58-.33,17.25,1.14,17.84,6.45.47,4.28-5.3,7.13-18.71,9.27-27.84,4.44-62.36,9-72.06,10.15-8.24,1-15.81,8.15-15.46,12.79.43,5.61,6.58,9.34,15.67,9.52s53.31-8.55,74.52-12.75c5.17-1,9.3-1.83,11.75-2.29,5.78-1.09,17.18-1.67,19,3.86,1.39,4.29-3.59,8.65-16.14,14.13-13.62,5.94-27,10-37.72,13.34-10.29,3.16-18.41,5.66-21.7,8.19l-.18.13c-.08,0-8.31,5.36-8.67,11.51-.16,2.69,1.23,5.2,4.27,7.66,10,8.09,30.19-3.46,42.26-10.36,2.89-1.65,5.38-3.08,7.21-3.92,25.34-11.72,86.16-39,104-39.41,19.63-.44,48.71,2.82,61,6.88,11.15,3.69,146.67,34.85,181.47,36.92,8.73.52,23.6,1.63,42.43,3,54.16,4.06,136,10.19,171.53,9.59,34.62-.59,121.83-2.07,277.6-48.93,60.45-51,116.79-103.63,135.3-133.16,37.75-60.23,104.27-131.24,115.06-282.25S1467.43,342.19,1447.66,305.33Z" transform="translate(-16.43 -91.93)"/>
  </g>
</svg>
