<svg xmlns="http://www.w3.org/2000/svg" viewBox="0 0 1400 1313.77">
  <defs>
    <style>
      .cls-1 {
        fill: #003889;
      }

      .cls-2 {
        fill: none;
        stroke: #e20000;
        stroke-miterlimit: 10;
      }

      .cls-3 {
        fill: #e20000;
      }
    </style>
  </defs>
  <title>logo</title>
  <g id="Layer_2" data-name="Layer 2">
    <path class="cls-1" d="M1450.2,528.27,1274.85,226.54a10.56,10.56,0,0,0-2-2.46c-11.07-10.28-98.74-90-186.41-119.72-72.37-24.53-134.34-51-158.86-61.75a10.65,10.65,0,0,0-14.44,6.58c-10.58,33.54-50.54,128.3-164.08,128.3-122.43,0-161.25-86.4-170.65-127a10.64,10.64,0,0,0-14.72-7.35C473.24,84,336.11,148.34,328.51,151.9c-.21.1-.41.18-.63.27-5.08,2-73.89,29.86-109.16,109.06a9.25,9.25,0,0,1-.51,1c-41.05,68.86-132,223.46-161.78,274.07a19.1,19.1,0,0,0,6.69,26.1L263,681.49a10.67,10.67,0,0,0,13.73-2.43l65.86-80.89a10.66,10.66,0,0,1,18.93,6.74v739.9a10.67,10.67,0,0,0,10.67,10.67H1095a10.67,10.67,0,0,0,10.67-10.61l4.52-787.07a10.66,10.66,0,0,1,19.25-6.26l82,111.37A10.68,10.68,0,0,0,1225,666l190.59-100.64,32.63-17.57a10.67,10.67,0,0,0,4.69-13.72l-2.09-4.69A9.25,9.25,0,0,0,1450.2,528.27Z" transform="translate(-53.79 -41.71)"/>
  </g>
  <g id="Layer_4" data-name="Layer 4">
    <path class="cls-2" d="M730,1007.33" transform="translate(-53.79 -41.71)"/>
    <path class="cls-3" d="M730.1,1002.39s298.29-235.54,278-399.34-242.48-141.95-278-19.24C717.45,567.52,669.61,451.74,537,497s-60.14,213.36-40.3,250.63C572.9,869.8,648.64,941.56,730.1,1002.39Z" transform="translate(-53.79 -41.71)"/>
  </g>
</svg>
